<svg xmlns="http://www.w3.org/2000/svg" viewBox="0 0 800 600" width="800" height="600">
  <defs>
    <linearGradient id="brandGrad6" x1="0%" y1="0%" x2="100%" y2="100%">
      <stop offset="0%" style="stop-color:#3b82f6;stop-opacity:1" />
      <stop offset="100%" style="stop-color:#8b5cf6;stop-opacity:1" />
    </linearGradient>
    <linearGradient id="bgGlow6" x1="0%" y1="0%" x2="100%" y2="100%">
      <stop offset="0%" style="stop-color:#3b82f6;stop-opacity:0.15" />
      <stop offset="100%" style="stop-color:#8b5cf6;stop-opacity:0.05" />
    </linearGradient>
    <linearGradient id="bar1" x1="0%" y1="0%" x2="0%" y2="100%">
      <stop offset="0%" style="stop-color:#3b82f6;stop-opacity:0.9" />
      <stop offset="100%" style="stop-color:#3b82f6;stop-opacity:0.4" />
    </linearGradient>
    <linearGradient id="bar2" x1="0%" y1="0%" x2="0%" y2="100%">
      <stop offset="0%" style="stop-color:#5b6ef6;stop-opacity:0.9" />
      <stop offset="100%" style="stop-color:#5b6ef6;stop-opacity:0.4" />
    </linearGradient>
    <linearGradient id="bar3" x1="0%" y1="0%" x2="0%" y2="100%">
      <stop offset="0%" style="stop-color:#7560f6;stop-opacity:0.9" />
      <stop offset="100%" style="stop-color:#7560f6;stop-opacity:0.4" />
    </linearGradient>
    <linearGradient id="bar4" x1="0%" y1="0%" x2="0%" y2="100%">
      <stop offset="0%" style="stop-color:#8b5cf6;stop-opacity:0.9" />
      <stop offset="100%" style="stop-color:#8b5cf6;stop-opacity:0.4" />
    </linearGradient>
  </defs>

  <!-- Background -->
  <rect width="800" height="600" fill="#0a0f1e" rx="12" ry="12"/>
  <rect x="1" y="1" width="798" height="598" fill="none" stroke="#1e293b" stroke-width="1" rx="12" ry="12"/>

  <!-- Subtle glow behind icon -->
  <circle cx="400" cy="220" r="140" fill="url(#bgGlow6)" opacity="0.6"/>

  <!-- Icon circle -->
  <circle cx="400" cy="220" r="70" fill="url(#brandGrad6)" opacity="0.15" stroke="url(#brandGrad6)" stroke-width="2"/>

  <!-- Bar Chart Icon -->
  <!-- Bars -->
  <rect x="367" y="230" width="12" height="28" rx="2" fill="url(#bar1)"/>
  <rect x="383" y="215" width="12" height="43" rx="2" fill="url(#bar2)"/>
  <rect x="399" y="200" width="12" height="58" rx="2" fill="url(#bar3)"/>
  <rect x="415" y="192" width="12" height="66" rx="2" fill="url(#bar4)"/>
  <!-- Baseline -->
  <line x1="362" y1="260" x2="432" y2="260" stroke="#475569" stroke-width="1.5" opacity="0.5"/>
  <!-- Trend line overlay -->
  <polyline points="373,228 389,213 405,198 421,190" fill="none" stroke="white" stroke-width="1.5" stroke-dasharray="3,3" opacity="0.3"/>
  <!-- Data point dots on trend line -->
  <circle cx="373" cy="228" r="2" fill="white" opacity="0.5"/>
  <circle cx="389" cy="213" r="2" fill="white" opacity="0.5"/>
  <circle cx="405" cy="198" r="2" fill="white" opacity="0.5"/>
  <circle cx="421" cy="190" r="2" fill="white" opacity="0.5"/>

  <!-- Module number -->
  <text x="400" y="340" text-anchor="middle" fill="#3b82f6" font-family="Arial, Helvetica, sans-serif" font-size="16" font-weight="600" letter-spacing="3">MODULE 6</text>

  <!-- Module title -->
  <text x="400" y="385" text-anchor="middle" fill="#f1f5f9" font-family="Arial, Helvetica, sans-serif" font-size="32" font-weight="700">Data &amp; Analytics</text>

  <!-- Tagline -->
  <text x="400" y="420" text-anchor="middle" fill="#94a3b8" font-family="Arial, Helvetica, sans-serif" font-size="18" font-weight="400">AI-driven insights and analysis</text>

  <!-- Bottom gradient accent bar -->
  <rect x="100" y="530" width="600" height="3" rx="1.5" fill="url(#brandGrad6)" opacity="0.8"/>

  <!-- Branding -->
  <text x="400" y="565" text-anchor="middle" fill="#475569" font-family="Arial, Helvetica, sans-serif" font-size="13" font-weight="600" letter-spacing="4">AI MASTERY ACADEMY</text>
</svg>